<svg xmlns="http://www.w3.org/2000/svg" viewBox="0 0 300 50" width="300" height="50">
  <svg x="2" y="5" width="35" height="40" viewBox="0 0 168 204.01" fill="#f0f0f0">
    <path d="M84 80.53c1.15-11.71-1.52-26.2-.05-37.55.18-1.4.28-2.56 1.47-3.53 23.71-11.52 48.07-26.63 72.22-36.78 3.46-1.46 6.76-3.7 10.36-2.14v37.5zc26.59 13.09 52.58 27.66 79.7 39.8l4.3 3.7v37.5l-4.99.59L84 123.53v38.5c0 .79-2.21 3.31-3.28 3.72-24.46 9.98-49.07 27.25-73.36 36.63-2.67 1.03-4.37 2.36-7.36 1.15v-38.5l83.01-42.99L0 80.03v-37c0-.51 1.67-1.64 2.51-1.55 20.71 8.88 40.79 19.95 61.11 29.94 6.62 3.25 13.77 5.87 20.38 9.12Z"/>
  </svg>
  <text x="45" y="36" font-family="Inter, system-ui, sans-serif" font-size="30" font-weight="700" fill="#f0f0f0">Xshot</text>
</svg>
