<svg xmlns="http://www.w3.org/2000/svg" viewBox="248 165 242 220" fill="white">
  <path d="m431 279-110-62.01c-.43-.58 1.98-2.36 2.66-2.82 12.61-8.54 31.96-19.16 45.66-26.34 27.73-14.52 65.8-21.48 94.88-6.54 40.15 20.63 8.6 54.77-20.21 64.72-.31 1.44.14 1.62 1.04 2.44 3.36 3.08 18.81 9.05 19.77 12.23v55.61l-33.81 19.69v-57Zm-15.21-79.73c-11.27 1.01-21.44 8.43-30.77 14.23 8.36 3.89 18.14 12.41 26.28 15.74 1.1.45 1.6.88 2.95.59 1.43-.31 16.43-9.37 18.22-10.86 15.14-12.58-3.94-20.85-16.69-19.71Z" />
  <path d="m253 318.99 34.34-19.76L391 358l.03-30.46-104.02-59.55c10.47-8.08 22.65-14.03 34.43-20.02l103.59 59.52c2.8 3.12.18 26.29-.2 31.83l-67.31 39.34-104.5-59.67Z" />
</svg>
